<?xml version="1.0" encoding="utf-8"?>
<!-- Generator: Adobe Illustrator 21.1.0, SVG Export Plug-In . SVG Version: 6.00 Build 0)  -->
<svg version="1.1" id="Layer_1" xmlns="http://www.w3.org/2000/svg" xmlns:xlink="http://www.w3.org/1999/xlink" x="0px" y="0px"
	 viewBox="0 0 1500 1500" enable-background="new 0 0 1500 1500" xml:space="preserve">
<linearGradient id="SVGID_1_" gradientUnits="userSpaceOnUse" x1="347.523" y1="973.1983" x2="143.5352" y2="619.8807" gradientTransform="matrix(1 0 0 -1 0 1502)">
	<stop  offset="0" style="stop-color:#00D466"/>
	<stop  offset="1" style="stop-color:#298BB3"/>
</linearGradient>
<path fill="url(#SVGID_1_)" d="M151.6,763.1l179.2,103.7c5,3.1,8.2,8.2,8.2,13.8v85.5c0,12.6-13.8,20.1-24.5,13.8L7,801.5
	c-5-3.1-8.2-8.2-8.2-13.8v-77.3c0-5.7,3.1-11.3,8.2-13.8l307.4-177.3c10.7-6.3,24.5,1.3,24.5,13.8v84.9c0,5.7-3.1,11.3-8.2,13.8
	L151.6,734.8C140.2,741.1,140.2,756.8,151.6,763.1z"/>
<linearGradient id="SVGID_2_" gradientUnits="userSpaceOnUse" x1="1354.5917" y1="884.7394" x2="1150.9402" y2="532.0054" gradientTransform="matrix(1 0 0 -1 0 1502)">
	<stop  offset="0" style="stop-color:#00D466"/>
	<stop  offset="1" style="stop-color:#298BB3"/>
</linearGradient>
<path fill="url(#SVGID_2_)" d="M1159.9,966.2v-86.1c0-5.7,3.1-11.3,8.2-13.8L1346,762.5c10.7-6.3,10.7-22,0-28.3l-177.9-101.8
	c-5-3.1-8.2-8.2-8.2-13.8V533c0-12.6,13.2-20.1,24.5-13.8l307.4,177.3c5,3.1,8.2,8.2,8.2,13.8V787c0,5.7-3.1,11.3-8.2,13.8
	L1184.4,980C1173.7,986.3,1159.9,978.1,1159.9,966.2z"/>
<linearGradient id="SVGID_3_" gradientUnits="userSpaceOnUse" x1="901.4857" y1="1015.9824" x2="597.5853" y2="489.6111" gradientTransform="matrix(1 0 0 -1 0 1502)">
	<stop  offset="0" style="stop-color:#00D466"/>
	<stop  offset="1" style="stop-color:#298BB3"/>
</linearGradient>
<path fill="url(#SVGID_3_)" d="M750,445.7c-167.8,0-304.3,135.8-304.3,303.6s135.8,303.6,303.6,303.6S1053,917.1,1053,749.3
	C1053.7,581.5,917.9,445.7,750,445.7z M750,856.2c-58.5,0-106.2-47.8-106.2-106.2c0-58.5,47.8-106.2,106.2-106.2
	c58.5,0,106.2,47.8,106.2,106.2S808.5,856.2,750,856.2z"/>
</svg>
