<?xml version="1.0" encoding="utf-8"?>
<!-- Generator: Adobe Illustrator 21.1.0, SVG Export Plug-In . SVG Version: 6.00 Build 0)  -->
<svg version="1.1" id="Layer_1" xmlns="http://www.w3.org/2000/svg" xmlns:xlink="http://www.w3.org/1999/xlink" x="0px" y="0px"
	 viewBox="0 0 60 60" enable-background="new 0 0 60 60" xml:space="preserve">
<linearGradient id="SVGID_1_" gradientUnits="userSpaceOnUse" x1="50.4904" y1="-5.4904" x2="9.5096" y2="65.4904">
	<stop  offset="0" style="stop-color:#00D466"/>
	<stop  offset="1" style="stop-color:#298BB3"/>
</linearGradient>
<path fill="url(#SVGID_1_)" d="M0,0v60h60V0H0z M50.5,46.6h-8.2c-0.5,0-1.1-0.3-1.3-0.8l-9.9-17c-0.6-1-2.1-1-2.7,0l-9.7,17
	c-0.3,0.5-0.8,0.8-1.3,0.8H9c-1.2,0-1.9-1.3-1.3-2.3l17-29.4c0.3-0.5,0.8-0.8,1.3-0.8h7.3c0.5,0,1.1,0.3,1.3,0.8l17.1,29.4
	C52.4,45.3,51.6,46.6,50.5,46.6z"/>
</svg>
