<?xml version="1.0" encoding="utf-8"?>
<!-- Generator: Adobe Illustrator 21.1.0, SVG Export Plug-In . SVG Version: 6.00 Build 0)  -->
<svg version="1.1" id="Layer_1" xmlns="http://www.w3.org/2000/svg" xmlns:xlink="http://www.w3.org/1999/xlink" x="0px" y="0px"
	 viewBox="0 0 238.8 144" enable-background="new 0 0 238.8 144" xml:space="preserve">
<linearGradient id="SVGID_1_" gradientUnits="userSpaceOnUse" x1="55.4876" y1="13.1848" x2="23.0387" y2="69.388">
	<stop  offset="0" style="stop-color:#00D466"/>
	<stop  offset="1" style="stop-color:#298BB3"/>
</linearGradient>
<path fill="url(#SVGID_1_)" d="M24.3,50.5L52.8,67c0.8,0.5,1.3,1.3,1.3,2.2v13.6c0,2-2.2,3.2-3.9,2.2L1.3,56.6
	C0.5,56.1,0,55.3,0,54.4V42.1c0-0.9,0.5-1.8,1.3-2.2l48.9-28.2c1.7-1,3.9,0.2,3.9,2.2v13.5c0,0.9-0.5,1.8-1.3,2.2L24.3,46
	C22.5,47,22.5,49.5,24.3,50.5z"/>
<linearGradient id="SVGID_2_" gradientUnits="userSpaceOnUse" x1="215.6859" y1="27.2985" x2="183.2854" y2="83.4177">
	<stop  offset="0" style="stop-color:#00D466"/>
	<stop  offset="1" style="stop-color:#298BB3"/>
</linearGradient>
<path fill="url(#SVGID_2_)" d="M184.7,82.8V69.1c0-0.9,0.5-1.8,1.3-2.2l28.3-16.5c1.7-1,1.7-3.5,0-4.5L186,29.7
	c-0.8-0.5-1.3-1.3-1.3-2.2V13.9c0-2,2.1-3.2,3.9-2.2l48.9,28.2c0.8,0.5,1.3,1.3,1.3,2.2v12.2c0,0.9-0.5,1.8-1.3,2.2L188.6,85
	C186.9,86,184.7,84.7,184.7,82.8z"/>
<linearGradient id="SVGID_3_" gradientUnits="userSpaceOnUse" x1="143.6406" y1="6.4695" x2="95.2902" y2="90.2149">
	<stop  offset="0" style="stop-color:#00D466"/>
	<stop  offset="1" style="stop-color:#298BB3"/>
</linearGradient>
<path fill="url(#SVGID_3_)" d="M119.5,0C92.8,0,71.1,21.6,71.1,48.3c0,26.7,21.6,48.3,48.3,48.3c26.7,0,48.3-21.6,48.3-48.3
	C167.8,21.6,146.2,0,119.5,0z M119.5,65.3c-9.3,0-16.9-7.6-16.9-16.9c0-9.3,7.6-16.9,16.9-16.9c9.3,0,16.9,7.6,16.9,16.9
	C136.4,57.7,128.8,65.3,119.5,65.3z"/>
<g>
	<path fill="#DAE1EA" d="M72.7,124.4v-3.8h17v4.1l-11.4,8.8h11.4v3.8h-17v-4.1l11.4-8.8H72.7z"/>
	<path fill="#DAE1EA" d="M118.5,140c0,1.1-0.4,2-1.2,2.8c-0.8,0.8-1.7,1.2-2.8,1.2h-10.3v-3.8h10.3c0.1,0,0.2-0.1,0.2-0.2v-2.7h-9.3
		c-1.1,0-2-0.4-2.8-1.2c-0.8-0.8-1.2-1.7-1.2-2.8v-12.7h3.8v12.7c0,0.1,0.1,0.2,0.2,0.2h9.1c0.1,0,0.2-0.1,0.2-0.2v-12.7h3.8V140z"
		/>
	<path fill="#DAE1EA" d="M130.4,115.1h3.8v18.3c0,0.1,0.1,0.2,0.2,0.2h3.4v3.8h-3.4c-1.1,0-2-0.4-2.8-1.2s-1.2-1.7-1.2-2.8V115.1z"
		/>
	<path fill="#DAE1EA" d="M153.2,120.6h9c1.1,0,2,0.4,2.8,1.2s1.2,1.7,1.2,2.8v8.8c0,1.1-0.4,2-1.2,2.8s-1.7,1.2-2.8,1.2h-9
		c-1.1,0-2-0.4-2.8-1.2c-0.8-0.8-1.2-1.7-1.2-2.8v-8.8c0-1.1,0.4-2,1.2-2.8C151.2,121,152.1,120.6,153.2,120.6z M162.3,124.4h-9
		c-0.1,0-0.2,0.1-0.2,0.2v8.8c0,0.1,0.1,0.2,0.2,0.2h9c0.1,0,0.2-0.1,0.2-0.2v-8.8C162.5,124.4,162.4,124.4,162.3,124.4z"/>
</g>
</svg>
