<?xml version="1.0" standalone="no"?>
<!DOCTYPE svg PUBLIC "-//W3C//DTD SVG 20010904//EN"
 "http://www.w3.org/TR/2001/REC-SVG-20010904/DTD/svg10.dtd">
<svg version="1.0" xmlns="http://www.w3.org/2000/svg"
 width="700.000000pt" height="700.000000pt" viewBox="0 0 700.000000 700.000000"
 preserveAspectRatio="xMidYMid meet">
<metadata>
Created by potrace 1.11, written by Peter Selinger 2001-2013
</metadata>
<g transform="translate(0.000000,700.000000) scale(0.100000,-0.100000)"
fill="#000000" stroke="none">
<path d="M3478 4905 c-1 -2 -39 -6 -83 -9 -126 -9 -284 -42 -371 -77 -16 -7
-35 -13 -42 -15 -28 -6 -172 -81 -247 -129 -302 -195 -518 -492 -605 -834
-124 -488 14 -996 365 -1346 99 -99 150 -141 254 -205 123 -76 253 -133 376
-165 17 -5 37 -10 45 -12 62 -17 261 -39 335 -38 72 2 219 14 245 20 3 1 32 7
65 14 360 79 696 321 893 643 103 168 170 361 198 573 9 63 8 275 0 340 -77
575 -477 1033 -1037 1189 -30 9 -73 18 -94 22 -20 3 -47 8 -59 10 -11 2 -64 7
-116 10 -52 3 -100 7 -107 9 -6 2 -13 2 -15 0z m165 -949 c87 -30 147 -66 207
-126 263 -263 152 -707 -206 -818 -118 -37 -275 -22 -366 35 -21 13 -40 23
-43 23 -3 0 -17 10 -32 23 -124 102 -189 231 -192 382 -5 231 148 428 379 489
68 18 189 14 253 -8z"/>
<path d="M1465 4561 c-6 -5 -183 -109 -395 -231 -495 -285 -572 -329 -590
-340 -16 -10 -139 -81 -200 -115 -245 -140 -269 -156 -275 -188 -4 -18 -5
-119 -3 -225 3 -216 -2 -201 86 -248 20 -10 64 -35 97 -55 33 -20 80 -47 105
-61 25 -14 123 -71 219 -127 96 -55 175 -101 177 -101 1 0 50 -29 109 -65 59
-36 110 -65 114 -65 3 0 22 -11 41 -23 19 -13 55 -35 80 -49 25 -14 135 -77
245 -141 110 -64 212 -118 226 -122 20 -5 33 0 55 18 l28 25 1 213 c1 118 -2
226 -7 240 -6 18 -33 40 -91 73 -45 25 -100 57 -122 70 -22 12 -177 103 -345
200 -168 97 -313 185 -323 195 -45 44 -24 98 54 139 24 13 51 27 59 32 8 6 56
34 107 63 498 285 646 374 657 397 8 17 11 94 11 237 -1 209 -1 213 -25 238
-24 26 -76 34 -95 16z"/>
<path d="M5457 4563 c-38 -10 -44 -48 -43 -275 1 -203 2 -219 21 -237 16 -16
287 -175 585 -343 302 -171 301 -170 295 -219 -3 -18 -13 -41 -22 -50 -10 -9
-187 -114 -393 -234 -458 -266 -470 -274 -479 -297 -4 -11 -7 -118 -6 -238 0
-206 2 -221 20 -239 44 -43 58 -39 270 85 110 64 214 124 230 134 17 9 84 49
150 87 478 279 589 343 593 343 3 0 13 6 21 14 9 7 36 25 61 38 132 73 213
124 225 142 19 30 16 416 -4 439 -7 9 -63 45 -125 81 -61 35 -183 105 -271
156 -88 51 -173 101 -190 110 -16 10 -145 84 -285 165 -140 81 -280 161 -310
178 -30 17 -79 45 -108 64 -29 18 -55 33 -58 33 -4 0 -32 16 -64 35 -55 34
-74 38 -113 28z"/>
</g>
</svg>
